<?xml version="1.0" encoding="UTF-8" standalone="no"?>
<!-- Created with Inkscape (http://www.inkscape.org/) -->

<svg
   xmlns:dc="http://purl.org/dc/elements/1.1/"
   xmlns:cc="http://creativecommons.org/ns#"
   xmlns:rdf="http://www.w3.org/1999/02/22-rdf-syntax-ns#"
   xmlns:svg="http://www.w3.org/2000/svg"
   xmlns="http://www.w3.org/2000/svg"
   xmlns:sodipodi="http://sodipodi.sourceforge.net/DTD/sodipodi-0.dtd"
   xmlns:inkscape="http://www.inkscape.org/namespaces/inkscape"
   width="210mm"
   height="297mm"
   id="svg4968"
   version="1.1"
   inkscape:version="0.48.5 r10040"
   sodipodi:docname="Nouveau document 15">
  <defs
     id="defs4970" />
  <sodipodi:namedview
     id="base"
     pagecolor="#ffffff"
     bordercolor="#666666"
     borderopacity="1.0"
     inkscape:pageopacity="0.0"
     inkscape:pageshadow="2"
     inkscape:zoom="0.35"
     inkscape:cx="491.87816"
     inkscape:cy="700.85319"
     inkscape:document-units="px"
     inkscape:current-layer="layer1"
     showgrid="false"
     inkscape:window-width="838"
     inkscape:window-height="540"
     inkscape:window-x="356"
     inkscape:window-y="215"
     inkscape:window-maximized="0" />
  <metadata
     id="metadata4973">
    <rdf:RDF>
      <cc:Work
         rdf:about="">
        <dc:format>image/svg+xml</dc:format>
        <dc:type
           rdf:resource="http://purl.org/dc/dcmitype/StillImage" />
        <dc:title></dc:title>
      </cc:Work>
    </rdf:RDF>
  </metadata>
  <g
     inkscape:label="Calque 1"
     inkscape:groupmode="layer"
     id="layer1">
    <g
       transform="translate(-65.823514,-342.23276)"
       id="g4991">
      <g
         id="g4595">
        <path
           id="path3084"
           sodipodi:nodetypes="cccccccsccsccsscccccccccccccccccsccssssccc"
           style="fill:#000000;stroke:#000000;stroke-width:1.44966018px"
           inkscape:connector-curvature="0"
           d="m 396.38208,605.51464 c 1.57318,12.94344 -3.96887,25.88658 -6.73062,38.8306 4.36333,9.60183 17.14513,24.07741 9.83696,26.92164 -3.8719,2.86105 -10.34183,-1.18336 -9.31929,11.39027 -2.00419,5.25335 -24.97803,-5.89859 -15.56945,-1.31551 l 9.35657,9.83519 c 1.83281,2.57547 1.34782,7.88438 -5.17731,10.11875 0.16899,5.50003 1.2191,12.38606 -1.24442,15.25343 -2.00249,2.33076 -6.84063,1.32084 -12.21669,0.27823 -10.58006,-1.97212 -22.72777,-6.13989 -36.75904,-12.94344 -3.84348,0.57618 5.60077,16.4049 7.32789,37.14464 0.70891,8.51278 -22.09099,-4.33955 -23.82334,-3.33683 -1.70233,0.98503 -2.19217,5.69804 0.96322,10.7169 12.01637,19.36747 14.96919,33.91191 30.11233,59.23022 15.91438,26.60706 20.95485,45.16851 16.98132,73.43544 l -9.30682,66.14799 90.86326,25.88658 c 15.8042,1.87993 31.62579,-17.38577 44.00733,-24.33399 4.23257,-4.36319 9.20447,-4.15197 14.4966,-4.14197 l 13.97893,0 c 10.3642,-0.50499 24.66307,10.98248 41.93722,18.12075 0.47635,1.99966 -1.80845,6.31269 -11.90795,1.55317 l -17.61336,-8.81394 c -3.76695,-0.72583 -7.47358,-1.8747 -11.90795,2.07099 7.42531,0.25665 9.96381,2.95673 13.46111,5.17731 6.73469,5.81778 9.98236,12.13366 11.90794,18.63828 1.92052,4.57615 -22.84374,5.43 -24.33399,3.10633 -3.79666,-4.02019 -7.59347,-6.49273 -11.39027,-5.69513 -19.4153,5.52249 -16.02599,13.12551 -35.72398,15.01409 -40.7514,-1.79 -81.50424,3.16693 -122.25564,-5.69509 -0.37451,5.04573 -0.80213,10.58764 2e-5,16.26086 l -79.96761,0.5471 c 18.99345,-42.64903 19.88644,-66.98882 10.92899,-91.93747 -19.6168,-54.65219 -32.12196,-101.65812 -13.60255,-161.18116 -5.59134,-2.71087 -30.62365,8.44936 -32.02417,-2.80917 13.17202,-11.98434 26.02727,-42.39115 11.73701,-53.41852 -11.02501,-8.50767 -10.33742,-25.82102 -2.28257,-35.5893 9.07481,-11.0052 -2.01126,-25.03601 -4.54687,-28.31645 -7.84438,-10.14859 -6.99993,-26.85766 5.75979,-36.5661 14.87717,-11.31954 13.44182,-18.07364 20.20328,-26.67453 32.03748,-41.43564 120.65085,-5.79922 138.49473,29.2527 z" />
        <path
           id="path3086"
           sodipodi:nodetypes="cccssc"
           style="fill:#000000;stroke:#000000;stroke-width:1.54037392px"
           inkscape:connector-curvature="0"
           d="m 461.53442,1004.0329 147.27053,0.2083 c 0.18746,-5.64982 6.25669,-17.09046 0.55013,-16.93489 l -124.09252,6.61297 c -7.27195,0.3875 -19.10834,0.5971 -21.78397,3.112 -1.91746,1.8018 -2.18117,4.33632 -1.94503,7.00212 z" />
        <rect
           id="rect3088"
           style="fill:#000000;stroke:#000000;stroke-width:1.26152003;stroke-linecap:round;stroke-opacity:1"
           transform="matrix(0.91471615,0.40409698,-0.40409698,0.91471615,0,0)"
           height="229.09981"
           width="14.431764"
           y="406.23489"
           x="955.5177" />
        <path
           id="path3862"
           sodipodi:nodetypes="cccccccc"
           style="fill:#000000;stroke:#000000;stroke-width:1.54037392px"
           inkscape:connector-curvature="0"
           d="m 658.62526,925.33522 c 0,0 29.95257,63.01824 30.732,64.57402 3.64453,8.06894 2.66085,11.23516 -7.20232,11.85076 l -65.15166,2.9313 67.68711,0.3891 c 13.09395,-0.7437 13.40957,-6.71482 10.50304,-14.00418 L 659.40439,915.9984 z" />
      </g>
      <rect
         transform="matrix(0.87316012,0.48743349,-0.37368235,0.92755674,0,0)"
         y="359.77356"
         x="614.43188"
         height="31.51906"
         width="2.9483588"
         id="rect4555"
         style="fill:#000000;fill-opacity:1;stroke:none" />
      <rect
         transform="matrix(0.91262072,0.40880731,-0.43824801,0.89885409,0,0)"
         y="412.86877"
         x="590.04529"
         height="6.0161619"
         width="52.482342"
         id="rect4575"
         style="fill:#000000;fill-opacity:1;stroke:none" />
    </g>
  </g>
</svg>
